<svg id="Component_1_19" data-name="Component 1 – 19" xmlns="http://www.w3.org/2000/svg" width="24" height="24" viewBox="0 0 24 24">
  <rect id="Rectangle_272" data-name="Rectangle 272" width="24" height="24" fill="none"/>
  <path id="Star1" d="M13.84,10.777a.957.957,0,0,0-.277.843l.773,4.278a.939.939,0,0,1-.391.939.957.957,0,0,1-1.017.07L9.076,14.9a.983.983,0,0,0-.435-.114H8.406a.706.706,0,0,0-.235.078L4.32,16.88a1.016,1.016,0,0,1-.617.1.966.966,0,0,1-.774-1.105L3.7,11.593a.973.973,0,0,0-.277-.851L.285,7.7a.939.939,0,0,1-.234-.982.976.976,0,0,1,.773-.652l4.321-.627a.967.967,0,0,0,.765-.529L7.815,1A.9.9,0,0,1,7.989.77L8.067.709A.584.584,0,0,1,8.207.6L8.3.561,8.45.5h.366a.973.973,0,0,1,.765.522L11.51,4.908a.966.966,0,0,0,.722.529l4.321.627a.986.986,0,0,1,.791.652.944.944,0,0,1-.252.982Z" transform="translate(3.305 3.24)" fill="#fed566"/>
</svg>
