<svg xmlns="http://www.w3.org/2000/svg" width="90" height="48" viewBox="0 0 90 48">
  <g id="Group_7793" data-name="Group 7793" transform="translate(-119.939 -497.872)">
    <g id="Group_7792" data-name="Group 7792" transform="translate(119.939 497.872)">
      <g id="Group_7790" data-name="Group 7790" transform="translate(0)">
        <path id="Path_26747" data-name="Path 26747" d="M125.029,501.329a12.257,12.257,0,0,1,.407,3.73v13.646h5.035V504.923a12.327,12.327,0,0,1,.407-3.661,2.676,2.676,0,0,1,1.458-1.694,8.08,8.08,0,0,1,3.157-.476q6.988,0,11.095,2.441a13.845,13.845,0,0,1,5.938,7.358,32.85,32.85,0,0,1,1.763,9.815h8.05q-.618-9.54-5.887-14.832-5.975-6-17.985-6-1.559,0-6.175.136l-5.768.067q-4.211,0-6.584-.2v1.357a13.563,13.563,0,0,1,3.564.543A2.435,2.435,0,0,1,125.029,501.329ZM152.7,534.413a13.824,13.824,0,0,1-5.8,7.628q-4.142,2.609-11.334,2.61a8.269,8.269,0,0,1-3.224-.474,2.681,2.681,0,0,1-1.458-1.7,12.328,12.328,0,0,1-.407-3.661V527.479h-5.035v11.205a12.244,12.244,0,0,1-.407,3.73,2.435,2.435,0,0,1-1.526,1.557,13.427,13.427,0,0,1-3.564.543v1.357q2.85-.2,8.414-.2,1.764,0,5.566.134l3.935.069a27.173,27.173,0,0,0,13.2-3.017,20.331,20.331,0,0,0,8.45-8.575,24.7,24.7,0,0,0,2.352-6.8h-7.772a32.6,32.6,0,0,1-1.389,6.934Z" transform="translate(-119.939 -497.872)" fill="#d59b78"/>
        <path id="Path_26748" data-name="Path 26748" d="M353.987,497.872q-5.634.2-19.071.2-13.505,0-19.138-.2.474,4.816.474,8.678,0,3.392-.2,5.561h1.562a41.632,41.632,0,0,1,1.356-7.764,6.347,6.347,0,0,1,2.85-3.728,12.809,12.809,0,0,1,6.244-1.187h3.665v19.273h6.312V499.432H341.7a12.772,12.772,0,0,1,6.244,1.187,6.351,6.351,0,0,1,2.85,3.728,41.646,41.646,0,0,1,1.358,7.764h1.559q-.2-2.171-.2-5.561Q353.511,502.685,353.987,497.872Zm-15.406,44.27a11.359,11.359,0,0,1-.544-4.135V527.479h-6.311v10.528a11.445,11.445,0,0,1-.544,4.135,3.059,3.059,0,0,1-1.9,1.763,16.992,16.992,0,0,1-4.412.61v1.357q3.259-.2,10.045-.2,6.445,0,9.976.2v-1.357a16.788,16.788,0,0,1-4.412-.61A3.059,3.059,0,0,1,338.581,542.142Z" transform="translate(-268.003 -497.872)" fill="#d59b78"/>
      </g>
      <g id="Group_7791" data-name="Group 7791" transform="translate(3.974 22.289)">
        <path id="Path_26749" data-name="Path 26749" d="M136.532,596.224v-4.847H138.2q.3,0,.5.014a2.076,2.076,0,0,1,.359.054,1.673,1.673,0,0,1,.711.352,2.219,2.219,0,0,1,.338.365,1.939,1.939,0,0,1,.234.454,3.009,3.009,0,0,1,.146.542,3.673,3.673,0,0,1,.048.616,3.246,3.246,0,0,1-.135,1,2.055,2.055,0,0,1-.332.7,1.731,1.731,0,0,1-.433.429,1.756,1.756,0,0,1-.579.24,3.4,3.4,0,0,1-.782.081Zm.643-.569h1.036a2.425,2.425,0,0,0,.758-.091,1.1,1.1,0,0,0,.427-.254,1.533,1.533,0,0,0,.352-.613,2.986,2.986,0,0,0,.128-.931,2.3,2.3,0,0,0-.247-1.171,1.222,1.222,0,0,0-.606-.548,2.5,2.5,0,0,0-.833-.1h-1.015Z" transform="translate(-136.532 -591.295)" fill="#fff"/>
        <path id="Path_26750" data-name="Path 26750" d="M168.524,596.224v-4.847h3.506v.569h-2.863v1.489h2.681V594h-2.681v1.653h2.972v.569Z" transform="translate(-160.861 -591.295)" fill="#fff"/>
        <path id="Path_26751" data-name="Path 26751" d="M198.9,596.224v-4.847h3.506v.569h-2.862v1.489h2.68V594h-2.68v1.653h2.972v.569Z" transform="translate(-183.802 -591.295)" fill="#fff"/>
        <path id="Path_26752" data-name="Path 26752" d="M229.229,596.22v-4.847h1.828a4.408,4.408,0,0,1,.8.054,1.453,1.453,0,0,1,.284.075,1.178,1.178,0,0,1,.244.132,1.11,1.11,0,0,1,.22.2,1.742,1.742,0,0,1,.186.281,1.5,1.5,0,0,1,.142.656,1.485,1.485,0,0,1-.393,1.056,1.91,1.91,0,0,1-1.422.42h-1.245v1.97Zm.643-2.539h1.252a1.306,1.306,0,0,0,.883-.237.834.834,0,0,0,.261-.65.882.882,0,0,0-.149-.518.661.661,0,0,0-.376-.274,2.553,2.553,0,0,0-.633-.061h-1.239Z" transform="translate(-206.789 -591.292)" fill="#fff"/>
        <path id="Path_26753" data-name="Path 26753" d="M280.341,596.224v-4.278h-1.6v-.569h3.846v.569h-1.6v4.278Z" transform="translate(-244.317 -591.295)" fill="#fff"/>
        <path id="Path_26754" data-name="Path 26754" d="M309.1,596.224v-4.847h2.153q.149,0,.287.007t.335.034a1.816,1.816,0,0,1,.365.088,1.061,1.061,0,0,1,.531.454,1.37,1.37,0,0,1,.206.738,1.22,1.22,0,0,1-.328.87,1.721,1.721,0,0,1-1.039.45,1.494,1.494,0,0,1,.386.244,3.7,3.7,0,0,1,.535.643l.84,1.32-.809,0-.634-1.01-.467-.674a1.289,1.289,0,0,0-.155-.181,1.271,1.271,0,0,0-.169-.14l-.142-.082-.142-.041-.149-.027h-.961v2.153Zm.643-2.707h1.374a1.908,1.908,0,0,0,.69-.1.707.707,0,0,0,.372-.287.784.784,0,0,0,.135-.437.727.727,0,0,0-.247-.558,1.141,1.141,0,0,0-.788-.227h-1.537Z" transform="translate(-267.323 -591.295)" fill="#fff"/>
        <path id="Path_26755" data-name="Path 26755" d="M338.77,596.224l1.862-4.847h.69l1.983,4.847h-.731l-.565-1.469h-2.022l-.535,1.468Zm1.4-1.991H341.8l-.5-1.339-.155-.427-.189-.583c-.014.077-.024.141-.034.192a2.591,2.591,0,0,1-.074.274l-.149.46Z" transform="translate(-289.808 -591.295)" fill="#fff"/>
        <path id="Path_26756" data-name="Path 26756" d="M371.835,596.224v-4.847h.643v4.847Z" transform="translate(-314.896 -591.295)" fill="#fff"/>
        <path id="Path_26757" data-name="Path 26757" d="M390.742,596.224v-4.847h.657l2.545,3.8v-3.8h.616v4.847H393.9l-2.545-3.811v3.811Z" transform="translate(-329.203 -591.295)" fill="#fff"/>
        <path id="Path_26758" data-name="Path 26758" d="M423.158,596.224v-4.847h.643v4.847Z" transform="translate(-353.637 -591.295)" fill="#fff"/>
        <path id="Path_26759" data-name="Path 26759" d="M442.065,596.224v-4.847h.657l2.545,3.8v-3.8h.616v4.847h-.657l-2.545-3.811v3.811Z" transform="translate(-368.015 -591.295)" fill="#fff"/>
        <path id="Path_26760" data-name="Path 26760" d="M475.782,594.063v-.568h2.051v1.794a3.767,3.767,0,0,1-.973.568,2.842,2.842,0,0,1-1.032.189,2.764,2.764,0,0,1-1.3-.3,2.047,2.047,0,0,1-.89-.886,2.881,2.881,0,0,1-.216-.609,2.964,2.964,0,0,1-.074-.677,3.015,3.015,0,0,1,.3-1.323,1.957,1.957,0,0,1,.853-.914,2.69,2.69,0,0,1,1.279-.294,2.531,2.531,0,0,1,.944.166,1.578,1.578,0,0,1,.663.474,2.05,2.05,0,0,1,.369.8l-.575.163a1.6,1.6,0,0,0-.268-.572,1.287,1.287,0,0,0-.47-.349,1.662,1.662,0,0,0-.663-.129,2,2,0,0,0-.755.129,1.429,1.429,0,0,0-.525.359,1.5,1.5,0,0,0-.3.481,2.549,2.549,0,0,0-.183.975,2.358,2.358,0,0,0,.224,1.076,1.452,1.452,0,0,0,.65.656,2.149,2.149,0,0,0,.433.156,2,2,0,0,0,.474.054,2.068,2.068,0,0,0,.8-.159,2.437,2.437,0,0,0,.606-.342v-.907Z" transform="translate(-391.807 -591.037)" fill="#fff"/>
      </g>
    </g>
  </g>
</svg>
