<svg xmlns="http://www.w3.org/2000/svg" width="24" height="24" viewBox="0 0 24 24">
  <g id="icon_confirm" data-name="icon/confirm" transform="translate(-1836 -28)">
    <rect id="Rectangle_21" data-name="Rectangle 21" width="24" height="24" transform="translate(1836 28)" fill="none"/>
    <path id="Path_1991" data-name="Path 1991" d="M7.684,15.819a.608.608,0,0,1-.061-.8l.061-.069L12.73,10,7.684,5.054a.608.608,0,0,1-.061-.8l.061-.069a.639.639,0,0,1,.82-.06l.071.06,5.491,5.383a.608.608,0,0,1,.061.8l-.061.069L8.575,15.819A.639.639,0,0,1,7.684,15.819Z" transform="translate(1837.5 30)" fill="#201b18"/>
  </g>
</svg>
