<svg xmlns="http://www.w3.org/2000/svg" width="16" height="16" viewBox="0 0 16 16">
  <g id="icon_video" data-name="icon/video" transform="translate(-1 -167)">
    <path id="Path_1934" data-name="Path 1934" d="M0,0H16V16H0Z" transform="translate(1 167)" fill="none"/>
    <path id="Path_1961" data-name="Path 1961" d="M11.047,2.461v.45a2.816,2.816,0,0,1,2.746,2.983l.007,5.055a2.839,2.839,0,0,1-3.077,3.045L6.091,14a2.868,2.868,0,0,1-3.085-3.072L3,5.932A2.814,2.814,0,0,1,5.7,2.918v-.45a.456.456,0,1,1,.912,0v.42l3.519,0v-.42a.456.456,0,1,1,.912,0ZM3.913,6.117,12.882,6.1V5.9a1.859,1.859,0,0,0-1.833-2.067V4.29a.456.456,0,1,1-.912,0V3.806l-3.519,0V4.3a.456.456,0,1,1-.912,0V3.835a1.844,1.844,0,0,0-1.793,2.1Zm6.431,2.726v.007a.488.488,0,0,0,.5.479.495.495,0,1,0-.5-.486Zm.489,2.693a.509.509,0,0,1-.493-.509.5.5,0,0,1,.485-.511h.006a.51.51,0,0,1,0,1.02ZM7.9,8.852a.489.489,0,1,0,.485-.516A.512.512,0,0,0,7.9,8.852Zm.512,2.656a.494.494,0,0,1-.51-.479.513.513,0,0,1,.485-.516.5.5,0,0,1,.025,1ZM5.463,8.873a.489.489,0,1,0,.485-.516A.511.511,0,0,0,5.463,8.873Zm.512,2.638a.493.493,0,0,1-.51-.479.512.512,0,0,1,.485-.516.5.5,0,0,1,.025,1Z" transform="translate(0.6 167)" fill="#e5c69e" fill-rule="evenodd"/>
  </g>
</svg>
