<svg xmlns="http://www.w3.org/2000/svg" width="16" height="16" viewBox="0 0 16 16">
  <g id="linkedin-letters" transform="translate(0 -9.708)" opacity="0.5">
    <g id="Group_905" data-name="Group 905" transform="translate(0 9.708)">
      <rect id="Rectangle_289" data-name="Rectangle 289" width="3.497" height="10.502" transform="translate(0.201 5.498)" fill="#d59b78"/>
      <path id="Path_1928" data-name="Path 1928" d="M161.145,140.534a3.764,3.764,0,0,0-2.914-1.2,4.2,4.2,0,0,0-1.214.164,2.754,2.754,0,0,0-.922.461,3.949,3.949,0,0,0-1.012,1.112v-1.493H151.6l.011.509q.011.509.011,3.137t-.021,6.856h3.486v-5.86a2.559,2.559,0,0,1,.117-.858,2.251,2.251,0,0,1,.673-.906,1.716,1.716,0,0,1,1.118-.366,1.508,1.508,0,0,1,1.341.631,3.066,3.066,0,0,1,.429,1.743v5.616h3.486v-6.019A5.046,5.046,0,0,0,161.145,140.534Z" transform="translate(-146.247 -134.076)" fill="#d59b78"/>
      <path id="Path_1929" data-name="Path 1929" d="M1.971,9.708a2,2,0,0,0-1.425.514A1.706,1.706,0,0,0,0,11.52a1.737,1.737,0,0,0,.53,1.293,1.912,1.912,0,0,0,1.4.519H1.95a2,2,0,0,0,1.436-.519,1.678,1.678,0,0,0,.535-1.293,1.768,1.768,0,0,0-.54-1.3A1.938,1.938,0,0,0,1.971,9.708Z" transform="translate(0 -9.708)" fill="#d59b78"/>
    </g>
  </g>
</svg>
