<svg xmlns="http://www.w3.org/2000/svg" width="24" height="24" viewBox="0 0 24 24">
  <g id="Group_17" data-name="Group 17" transform="translate(-355 -3898)">
    <rect id="Rectangle_75" data-name="Rectangle 75" width="24" height="24" transform="translate(355 3898)" fill="none"/>
    <g id="Group_1878" data-name="Group 1878" transform="translate(357 3899.837)">
      <path id="Path_2003" data-name="Path 2003" d="M10.659,12.6a2.506,2.506,0,0,1-1.576-.561L5.351,8.979a.642.642,0,0,1-.095-.892.62.62,0,0,1,.878-.1l3.729,3.054a1.269,1.269,0,0,0,1.6,0l3.691-3.049a.617.617,0,0,1,.879.092.642.642,0,0,1-.091.892l-3.7,3.054A2.52,2.52,0,0,1,10.659,12.6Z" transform="translate(-0.637 -0.972)" fill="#d59b78" fill-rule="evenodd"/>
      <g id="Group_1878-2" data-name="Group 1878" transform="translate(1 2)">
        <path id="Path_2004" data-name="Path 2004" d="M5.888,17.07H14.11s.008,0,.013,0a3.39,3.39,0,0,0,2.452-.99,4.227,4.227,0,0,0,1.169-3.038V7.291A3.724,3.724,0,0,0,14.11,3.256H5.89A3.724,3.724,0,0,0,2.256,7.291v5.75a4.23,4.23,0,0,0,1.169,3.038,3.391,3.391,0,0,0,2.452.99Zm-.014,1.256a4.625,4.625,0,0,1-3.336-1.356A5.476,5.476,0,0,1,1,13.041V7.291A4.99,4.99,0,0,1,5.89,2h8.22A4.99,4.99,0,0,1,19,7.291v5.75a5.476,5.476,0,0,1-1.538,3.928,4.629,4.629,0,0,1-3.339,1.356H5.874Z" transform="translate(-1 -2)" fill="#d59b78" fill-rule="evenodd"/>
      </g>
    </g>
  </g>
</svg>
