<svg xmlns="http://www.w3.org/2000/svg" width="24" height="24" viewBox="0 0 24 24">
  <g id="Group_15" data-name="Group 15" transform="translate(-355 -3858)">
    <rect id="Rectangle_74" data-name="Rectangle 74" width="24" height="24" transform="translate(355 3858)" fill="none"/>
    <g id="Group_1879" data-name="Group 1879" transform="translate(356 3859)">
      <path id="Path_2005" data-name="Path 2005" d="M4.072,4.687s-.042.046-.1.1a1.976,1.976,0,0,0-.657,1.534c-.007,1.256.819,3.589,4.8,7.567,3.96,3.958,6.289,4.794,7.549,4.794h.018a1.98,1.98,0,0,0,1.534-.657,2.016,2.016,0,0,1,.15-.142c.875-.88,1.322-1.535,1.318-1.955s-.539-.935-1.276-1.636c-.234-.223-.489-.465-.758-.734-.7-.695-1.041-.576-1.8-.309-1.049.368-2.489.868-4.727-1.37S8.385,8.2,8.752,7.154c.265-.759.386-1.1-.311-1.8-.273-.272-.518-.53-.744-.767C7,3.852,6.5,3.323,6.073,3.317H6.066c-.421,0-1.074.45-2,1.374ZM15.664,20c-2.188,0-5.041-1.742-8.48-5.18S1.987,8.507,2,6.314A3.27,3.27,0,0,1,3.053,3.845c.015-.018.066-.068.083-.086C4.4,2.5,5.245,1.99,6.089,2c.981.013,1.679.747,2.562,1.677.219.23.456.48.72.744a2.6,2.6,0,0,1,.623,3.167c-.32.916-.6,1.706,1.06,3.362s2.448,1.379,3.36,1.057a2.6,2.6,0,0,1,3.167.622c.26.26.507.494.734.711.934.888,1.672,1.589,1.684,2.573.01.839-.5,1.693-1.756,2.951l-.557-.378.471.46A3.268,3.268,0,0,1,15.689,20Z" transform="translate(0 0)" fill="#d59b78" fill-rule="evenodd"/>
    </g>
  </g>
</svg>
