<svg xmlns="http://www.w3.org/2000/svg" width="15.999" height="14" viewBox="0 0 15.999 14">
  <g id="twitter-logo-silhouette" transform="translate(-0.001 -57.441)" opacity="0.5">
    <g id="Group_4" data-name="Group 4" transform="translate(0.001 57.441)">
      <path id="Path_12" data-name="Path 12" d="M16,59.1a6.192,6.192,0,0,1-1.885.557A3.516,3.516,0,0,0,15.559,57.7a6.337,6.337,0,0,1-2.086.858,3.169,3.169,0,0,0-2.4-1.117A3.416,3.416,0,0,0,7.8,60.976a3.807,3.807,0,0,0,.085.806,9.115,9.115,0,0,1-6.764-3.694,3.718,3.718,0,0,0-.444,1.777,3.613,3.613,0,0,0,1.46,2.942,3.106,3.106,0,0,1-1.487-.444v.044a3.484,3.484,0,0,0,2.632,3.467A3.1,3.1,0,0,1,2.412,66a2.933,2.933,0,0,1-.618-.066A3.325,3.325,0,0,0,4.86,68.388,6.292,6.292,0,0,1,.784,69.9,6.482,6.482,0,0,1,0,69.85a8.8,8.8,0,0,0,5.031,1.591c6.038,0,9.338-5.387,9.338-10.059l-.011-.458A6.855,6.855,0,0,0,16,59.1Z" transform="translate(-0.001 -57.441)" fill="#d59b78"/>
    </g>
  </g>
</svg>
