<svg xmlns="http://www.w3.org/2000/svg" width="88" height="88" viewBox="0 0 88 88">
  <g id="icon_time" data-name="icon/time" transform="translate(-757 -1741)">
    <g id="Group_1828" data-name="Group 1828" transform="translate(-0.5 -5.918)">
      <rect id="Rectangle_342" data-name="Rectangle 342" width="74" height="54" rx="8" transform="translate(760 1773)" fill="rgba(229,198,158,0.07)"/>
      <g id="Group_1872" data-name="Group 1872" transform="translate(557.953 1042.466)">
        <path id="Path_1989" data-name="Path 1989" d="M280.891,712.371H217.2a4.156,4.156,0,0,0-4.156,4.159v44.188a4.157,4.157,0,0,0,4.156,4.158h43.271l-.846,9.822,11.517-9.822h9.746a4.157,4.157,0,0,0,4.156-4.158V716.529A4.156,4.156,0,0,0,280.891,712.371Z" transform="translate(0 0)" fill="none" stroke="#d59b78" stroke-linecap="round" stroke-linejoin="round" stroke-width="2"/>
        <path id="Path_1990" data-name="Path 1990" d="M308.726,759.044q0-.584-.055-1.153l2.57-.673-1.15-4.4-2.621.685a12.84,12.84,0,0,0-2.125-3.134l1.68-2.178-3.6-2.779-1.7,2.2a12.743,12.743,0,0,0-3.55-1.193v-2.8h-4.55v2.8a12.835,12.835,0,0,0-3.384,1.108l-1.67-2.229-3.642,2.728,1.653,2.206a12.7,12.7,0,0,0-1.665,2.179l-2.552-.941-1.574,4.27,2.506.922a12.8,12.8,0,0,0-.227,2.379c0,.281.014.559.033.837l-2.544.666,1.153,4.4,2.487-.651a12.869,12.869,0,0,0,2.122,3.276l-1.547,2,3.6,2.782,1.526-1.976a12.719,12.719,0,0,0,3.725,1.286v2.481h4.55v-2.481a12.82,12.82,0,0,0,3.562-1.2l1.5,2,3.641-2.729-1.517-2.024a12.968,12.968,0,0,0,1.683-2.306l2.4.886,1.572-4.269-2.449-.9A13.434,13.434,0,0,0,308.726,759.044ZM295.9,767.619a8.735,8.735,0,1,1,8.739-8.737A8.736,8.736,0,0,1,295.9,767.619Z" transform="translate(-46.559 -21.551)" fill="none" stroke="#d59b78" stroke-width="2"/>
      </g>
    </g>
    <rect id="Rectangle_336" data-name="Rectangle 336" width="88" height="88" transform="translate(757 1741)" fill="none"/>
  </g>
</svg>
