<svg xmlns="http://www.w3.org/2000/svg" width="88" height="88" viewBox="0 0 88 88">
  <g id="icon_time" data-name="icon/time" transform="translate(-757 -1741)">
    <g id="Group_1828" data-name="Group 1828" transform="translate(-1.075 13.495)">
      <g id="Group_1829" data-name="Group 1829" transform="translate(730 1700)">
        <path id="Path_1963" data-name="Path 1963" d="M88.376,50.919l-1.638,5.04h-5.3l4.288,3.116-1.638,5.04L88.376,61l4.288,3.115-1.637-5.04,4.288-3.116h-5.3Z" transform="translate(-12.376 5.478)" fill="#d59b78"/>
        <path id="Path_1964" data-name="Path 1964" d="M74.281,56.212l-1.229,3.78H69.077l3.216,2.337L71.065,66.11l3.217-2.337L77.5,66.11l-1.228-3.781,3.217-2.337H75.509Z" transform="translate(-10.065 4.481)" fill="#d59b78"/>
        <path id="Path_1967" data-name="Path 1967" d="M63.316,67.025l-.819,2.52H59.847L61.991,71.1l-.819,2.521,2.144-1.558,2.144,1.558L64.641,71.1l2.144-1.557h-2.65Z" transform="translate(-8.338 2.449)" fill="#d59b78"/>
        <path id="Path_1968" data-name="Path 1968" d="M103.284,56.213l-1.228,3.78H98.081L101.3,62.33l-1.227,3.781,3.215-2.337,3.216,2.337-1.227-3.781,3.216-2.337h-3.975Z" transform="translate(-15.5 4.482)" fill="#d59b78"/>
        <path id="Path_1969" data-name="Path 1969" d="M115.88,69.547l-.819-2.52-.819,2.52h-2.651l2.144,1.558-.818,2.52,2.144-1.558,2.144,1.558-.818-2.52,2.144-1.558Z" transform="translate(-18.039 2.449)" fill="#d59b78"/>
        <path id="Path_1971" data-name="Path 1971" d="M42.264,78.655l-1.821,2.976L43.1,83.9l-1.333,3.225,2.974,1.825-.232.97h3.081a31.639,31.639,0,1,1,56.831,0h3.08l-.232-.97,2.974-1.825L108.9,83.9l2.652-2.268-1.822-2.976L112,76l-2.264-2.655,1.822-2.977L108.9,68.1l1.333-3.225-2.974-1.825.812-3.394-3.223-1.338.271-3.478-3.393-.817-.276-3.478-3.478-.276-.816-3.393-3.479.271-1.338-3.223-3.394.812-1.825-2.974L83.9,43.1l-2.268-2.652-2.977,1.821L76,40l-2.655,2.264-2.976-1.821L68.1,43.1l-3.224-1.333L63.05,44.736l-3.393-.812-1.338,3.223-3.478-.271-.816,3.393-3.48.276-.276,3.478-3.392.817.271,3.478-3.223,1.338.812,3.394-2.974,1.825L43.1,68.1l-2.652,2.268,1.821,2.977L40,76Z" fill="#d59b78"/>
      </g>
      <path id="Path_1988" data-name="Path 1988" d="M150.569,511.458a32.425,32.425,0,1,1,58.281-.706Z" transform="translate(615.038 1291.553)" fill="rgba(229,198,158,0.07)"/>
    </g>
    <rect id="Rectangle_336" data-name="Rectangle 336" width="88" height="88" transform="translate(757 1741)" fill="none"/>
  </g>
</svg>
