<svg xmlns="http://www.w3.org/2000/svg" width="88" height="88" viewBox="0 0 88 88">
  <g id="icon_time" data-name="icon/time" transform="translate(-757 -1741)">
    <g id="Group_1828" data-name="Group 1828" transform="translate(0 6.379)">
      <path id="Path_1987" data-name="Path 1987" d="M126.981,449.738c-5.234-25.416-6.383-58.84-6.383-58.84,37.532-14.3,71.234,0,71.234,0s-3.319,46.824-6.638,59.923C185.194,450.821,154.683,462.682,126.981,449.738Z" transform="translate(639.402 1363.456)" fill="rgba(229,198,158,0.07)"/>
      <g id="Group_1830" data-name="Group 1830" transform="translate(579.567 1413.289)">
        <g id="Group_1847" data-name="Group 1847" transform="translate(202.99 368.174)">
          <g id="Group_1846" data-name="Group 1846">
            <rect id="Rectangle_337" data-name="Rectangle 337" width="14.225" height="0.984" rx="0.492" fill="#d59b78"/>
          </g>
        </g>
        <g id="Group_1849" data-name="Group 1849" transform="translate(204.411 371.178)">
          <g id="Group_1848" data-name="Group 1848">
            <rect id="Rectangle_338" data-name="Rectangle 338" width="12.806" height="0.984" rx="0.492" fill="#d59b78"/>
          </g>
        </g>
        <g id="Group_1853" data-name="Group 1853" transform="translate(233.848 368.223)">
          <g id="Group_1852" data-name="Group 1852" transform="translate(0)">
            <rect id="Rectangle_340" data-name="Rectangle 340" width="14.225" height="0.984" rx="0.492" transform="translate(14.225 0.984) rotate(180)" fill="#d59b78"/>
          </g>
        </g>
        <g id="Group_1855" data-name="Group 1855" transform="translate(233.846 371.227)">
          <g id="Group_1854" data-name="Group 1854" transform="translate(0)">
            <rect id="Rectangle_341" data-name="Rectangle 341" width="12.806" height="0.984" rx="0.492" transform="translate(12.806 0.984) rotate(180)" fill="#d59b78"/>
          </g>
        </g>
        <g id="Group_1869" data-name="Group 1869" transform="translate(204.822 342)">
          <path id="Path_1984" data-name="Path 1984" d="M244.588,342.734c-2.336-1.2-5.674-.265-8.271,2.152H216.106c-2.6-2.417-5.934-3.348-8.271-2.152-3.487,1.785-3.213,7.438-1.9,10.882,2.339,6.152,9.516,7.794,11.109,8.087a16.277,16.277,0,0,0,7.762,5.219,13.385,13.385,0,0,1-.256,3.677c-.412,2-.987,4.291-2.678,5.6a20.938,20.938,0,0,0-1.776,1.352c-1.77,1.693-1.8,4.491-1.63,6.812h-.3a.362.362,0,0,0-.362.362v1.155a.362.362,0,0,0,.362.362h16.317a.361.361,0,0,0,.362-.362v-1.155a.362.362,0,0,0-.362-.362h-.308c.212-2.522.154-5.46-1.983-7.141a8.665,8.665,0,0,1-2.678-2.52,14.1,14.1,0,0,1-1.414-4.1,13.437,13.437,0,0,1-.254-3.677,16.28,16.28,0,0,0,7.8-5.271c2.016-.413,8.619-2.187,10.843-8.035C247.8,350.172,248.076,344.519,244.588,342.734Zm-29.841,14.531a13.027,13.027,0,0,0,1.1,2.642c-2.475-.7-6.9-2.505-8.536-6.815-1.125-2.959-1.335-7.748,1.2-9.044,1.47-.753,3.946-.289,6.152,1.548v.808a.363.363,0,0,0,.362.363h.831l.023.025A14.351,14.351,0,0,0,214.747,357.264Zm.711-11.439s4.866-.409,10.867-.409,10.868.409,10.868.409-4.866.41-10.868.41S215.458,345.825,215.458,345.825Zm18.96,39.473s-3.69.308-8.241.308-8.241-.308-8.241-.308,3.689-.307,8.241-.307S234.418,385.3,234.418,385.3Zm-2.466-7.049a9.7,9.7,0,0,1,1.727,5.618h-1.841a15.8,15.8,0,0,0,.114-5.618Zm-3.736-5.632a13.718,13.718,0,0,0,2.98,4.972,11.58,11.58,0,0,1-3.144-3.993,12.639,12.639,0,0,1-1.129-6.754h.565A14.481,14.481,0,0,0,228.216,372.617Zm7.186-12.53a16,16,0,0,1-5.207,5.207,13.741,13.741,0,0,1-2.87,1.23A15.341,15.341,0,0,0,232,362.013c4.244-6.406,1.91-13.858,1.517-15.046h2.624C236.434,347.77,238.752,354.387,235.4,360.086Zm9.709-7c-1.578,4.15-5.745,5.986-8.261,6.737a13.013,13.013,0,0,0,1.054-2.564,14.342,14.342,0,0,0-1.145-10.5h.87a.363.363,0,0,0,.363-.363v-1c2.146-1.681,4.5-2.083,5.923-1.357C246.447,345.343,246.236,350.132,245.111,353.091Z" transform="translate(-205.031 -342.214)" fill="#d59b78"/>
        </g>
        <g id="Group_1871" data-name="Group 1871" transform="translate(189.433 324.711)">
          <path id="Path_1986" data-name="Path 1986" d="M193.687,361.036c-.956-9.41-1.751-19-2.364-28.5a99.738,99.738,0,0,1,68.22,0c-.614,9.507-1.409,19.094-2.365,28.5-.9,8.844-1.722,15.251-2.636,20.042.771-.713,1.522-1.45,2.238-2.223.76-4.575,1.451-10.3,2.2-17.636.981-9.653,1.793-19.492,2.413-29.241l.042-.667-.625-.236a101.5,101.5,0,0,0-70.749,0l-.625.236.042.667c.621,9.75,1.432,19.588,2.413,29.241.866,8.515,1.656,14.872,2.569,19.764.723.672,1.472,1.312,2.24,1.929A213.9,213.9,0,0,1,193.687,361.036Z" transform="translate(-189.433 -324.711)" fill="#d59b78"/>
        </g>
      </g>
    </g>
    <rect id="Rectangle_336" data-name="Rectangle 336" width="88" height="88" transform="translate(757 1741)" fill="none"/>
  </g>
</svg>
